<?xml version="1.0" encoding="UTF-8" standalone="no"?>
<!-- Created with Inkscape (http://www.inkscape.org/) -->

<svg
   version="1.1"
   id="svg250"
   width="205.58299"
   height="243.05382"
   viewBox="0 0 205.58299 243.05382"
   sodipodi:docname="new.svg"
   inkscape:version="1.2.2 (b0a8486541, 2022-12-01)"
   xmlns:inkscape="http://www.inkscape.org/namespaces/inkscape"
   xmlns:sodipodi="http://sodipodi.sourceforge.net/DTD/sodipodi-0.dtd"
   xmlns:xlink="http://www.w3.org/1999/xlink"
   xmlns="http://www.w3.org/2000/svg"
   xmlns:svg="http://www.w3.org/2000/svg">
  <defs
     id="defs254">
    <linearGradient
       inkscape:collect="always"
       id="linearGradient1089">
      <stop
         style="stop-color:#000000;stop-opacity:1;"
         offset="0.2388953"
         id="stop1085" />
      <stop
         style="stop-color:#ffffff;stop-opacity:0.99279642;"
         offset="0.99999994"
         id="stop1087" />
    </linearGradient>
    <mask
       maskUnits="userSpaceOnUse"
       id="mask4132">
      <circle
         style="display:inline;fill:url(#radialGradient4136);fill-opacity:1;stroke-width:8.83574;stroke-linecap:round;stroke-linejoin:round;stroke-miterlimit:6.6;stroke-opacity:0.46538"
         id="circle4134"
         cx="103.2915"
         cy="103.2915"
         inkscape:label="mask"
         r="103.2915" />
    </mask>
    <radialGradient
       inkscape:collect="always"
       xlink:href="#linearGradient1089"
       id="radialGradient4136"
       gradientUnits="userSpaceOnUse"
       gradientTransform="matrix(0.7703118,-0.36156495,0.39835652,0.84869598,8.3099861,70.129778)"
       cx="163.2915"
       cy="73.291496"
       fx="163.2915"
       fy="73.291496"
       r="103.2915" />
  </defs>
  <sodipodi:namedview
     id="namedview252"
     pagecolor="#ffffff"
     bordercolor="#000000"
     borderopacity="0.25"
     inkscape:showpageshadow="2"
     inkscape:pageopacity="0.0"
     inkscape:pagecheckerboard="0"
     inkscape:deskcolor="#d1d1d1"
     showgrid="false"
     inkscape:zoom="1.6489908"
     inkscape:cx="35.476243"
     inkscape:cy="100.36441"
     inkscape:window-width="1920"
     inkscape:window-height="985"
     inkscape:window-x="1920"
     inkscape:window-y="28"
     inkscape:window-maximized="1"
     inkscape:current-layer="g256" />
  <g
     inkscape:groupmode="layer"
     inkscape:label="Image"
     id="g256"
     transform="translate(-0.5,-0.5)">
    <path
       style="fill:#4f7cac;stroke-width:0.318488;fill-opacity:1"
       d="m 99.555607,205.70899 c -0.127102,-0.2057 -0.231088,-0.97576 -0.231088,-1.71122 0,-3.67564 3.903511,-6.05085 7.043291,-4.28573 2.09295,1.17655 3.21943,4.01164 2.2867,5.75485 -0.30072,0.56209 -0.70396,0.61611 -4.59871,0.61611 -2.92476,0 -4.341872,-0.11778 -4.500193,-0.37401 z m -13.18157,-3.52798 c -1.242438,-0.84829 -2.228994,-2.56385 -2.228994,-3.87609 0,-0.5168 0.286623,-1.53184 0.636928,-2.25568 2.154963,-4.45266 9.039074,-2.9202 9.039074,2.01218 0,1.80478 -0.880695,3.44379 -2.299164,4.27886 -1.378425,0.81148 -3.837468,0.7354 -5.147844,-0.15927 z m 48.723083,-1.92332 c 0,-0.40085 0.3224,-1.35779 0.7165,-2.12652 1.45952,-2.84702 5.19923,-3.47001 7.53559,-1.25532 l 0.76839,0.72846 -1.40539,0.60814 c -1.48071,0.64081 -7.22654,2.77407 -7.47167,2.77407 -0.0793,0 -0.14342,-0.32797 -0.14342,-0.72883 z m -12.77056,-1.58687 c -3.97845,-2.65847 -2.17512,-8.83048 2.58018,-8.83048 4.84223,0 6.61322,6.39194 2.47081,8.91819 -1.44355,0.88042 -3.65978,0.84193 -5.05099,-0.0877 z m -50.84283,-2.14201 c -3.186115,-1.94307 -3.044761,-6.70783 0.248093,-8.36263 3.234641,-1.62555 7.001269,0.62823 6.998373,4.18749 -0.0022,2.75248 -2.043948,4.8081 -4.775565,4.8081 -0.86943,0 -1.84121,-0.24893 -2.470901,-0.63296 z m 36.00513,-3.49153 c -2.81158,-1.71477 -3.24912,-5.29146 -0.93092,-7.61026 0.97236,-0.97258 1.36373,-1.13739 2.96736,-1.24966 1.54576,-0.10821 2.02387,-0.008 2.92944,0.61556 3.10433,2.13669 2.87714,6.79126 -0.40754,8.35034 -1.46159,0.69374 -3.31793,0.65058 -4.55834,-0.10598 z m -50.967403,-2.13054 c -2.251696,-1.11032 -3.225851,-4.77901 -1.785426,-6.72394 2.298758,-3.10388 6.495051,-3.04627 8.306436,0.11404 1.293371,2.25655 0.664403,4.93437 -1.507241,6.41708 -1.263134,0.86242 -3.482734,0.94779 -5.013769,0.19282 z m 99.593423,-0.45495 c 0,-1.31534 0.95811,-2.84282 2.26646,-3.61332 1.11619,-0.6573 3.29743,-0.80841 4.21941,-0.2923 0.48302,0.27036 0.0978,0.62908 -2.5606,2.38449 -1.7211,1.13643 -3.30827,2.1723 -3.52727,2.3019 -0.28449,0.16843 -0.398,-0.0543 -0.398,-0.78077 z m -12.27614,-0.74334 c -1.30922,-0.57038 -2.61952,-2.19105 -2.8756,-3.5567 -0.26712,-1.42426 0.57422,-3.71774 1.6842,-4.59107 2.57886,-2.02909 6.16032,-1.16829 7.47109,1.7957 1.7777,4.0197 -2.25966,8.10354 -6.27969,6.35207 z M 92.342529,187.2183 c -1.272868,-0.73795 -2.470638,-2.73088 -2.458379,-4.0904 0.01206,-1.34347 1.173738,-3.43556 2.283255,-4.11219 1.333565,-0.81326 3.782143,-0.85534 5.086584,-0.0874 2.183052,1.28517 3.050781,4.80079 1.651352,6.69038 -1.698297,2.29312 -4.280838,2.92259 -6.562812,1.59961 z m -51.222395,-2.27726 c -2.161988,-1.50143 -2.767031,-4.12057 -1.473297,-6.37774 1.180837,-2.0602 4.125018,-3.06227 6.066251,-2.06469 3.279203,1.68515 3.912983,5.4226 1.342182,7.91494 -0.957201,0.92799 -1.379922,1.10042 -2.951827,1.20416 -1.556475,0.1027 -2.008789,1.1e-4 -2.983309,-0.67667 z m 87.424486,-1.16131 c -2.4758,-1.22582 -3.44309,-4.51547 -1.96608,-6.68621 1.14872,-1.68828 2.26988,-2.34899 3.98578,-2.34899 2.89224,0 4.8522,1.93125 4.85,4.7788 -0.002,2.03995 -0.89036,3.48303 -2.63251,4.27408 -1.72341,0.78251 -2.62877,0.77872 -4.23719,-0.0177 z M 77.462871,181.6035 c -1.610795,-0.86409 -2.320377,-1.99774 -2.463709,-3.93611 -0.146173,-1.97677 0.55296,-3.36877 2.216678,-4.41347 1.472051,-0.92435 4.348882,-0.73731 5.522079,0.35901 1.203197,1.12437 1.725574,2.30461 1.725574,3.8987 0,3.50974 -3.869557,5.7715 -7.000622,4.09187 z m 87.829309,-0.98695 c -2.22653,-0.69802 -3.44019,-2.34313 -3.4431,-4.66718 -0.003,-1.94134 0.87314,-3.42864 2.5405,-4.31489 1.40479,-0.74668 2.67338,-0.73788 4.36501,0.0304 2.43531,1.10595 3.41763,4.52197 1.92937,6.70932 -1.34763,1.98049 -3.44499,2.85279 -5.39178,2.24244 z m -51.76351,-2.53583 c -1.75627,-0.81941 -2.63142,-2.25904 -2.63142,-4.32853 0,-2.13429 0.87369,-3.52291 2.73436,-4.34621 4.28073,-1.89403 8.67283,2.95757 6.10024,6.73842 -1.59644,2.34629 -3.83006,3.04352 -6.20318,1.93632 z m -84.165903,-3.39719 c -3.136819,-3.18844 -3.289932,-3.40458 -2.711582,-3.82759 0.337138,-0.24657 1.266269,-0.44778 2.06474,-0.44712 2.743988,0.002 4.802172,2.05774 4.783034,4.77675 -0.0056,0.78837 -0.190452,1.75825 -0.410883,2.15531 -0.389696,0.70196 -0.492671,0.62851 -3.725309,-2.65735 z m 33.259865,1.32341 c -0.540297,-0.23531 -1.292149,-0.82178 -1.670782,-1.30324 -2.585093,-3.28723 -0.4838,-7.853 3.614164,-7.853 2.598207,0 4.55629,1.73239 4.84401,4.28567 0.405388,3.59759 -3.415173,6.3392 -6.787392,4.87057 z m 87.359038,-1.27296 c -1.63317,-0.58793 -2.14771,-1.06935 -2.85957,-2.6755 -2.06758,-4.66485 3.69798,-8.82197 7.5471,-5.44159 3.91522,3.43853 0.19776,9.87585 -4.68753,8.11709 z m -51.075942,-2.11221 c -0.551424,-0.16742 -1.440002,-0.8027 -1.974601,-1.41173 -3.429168,-3.90659 0.748733,-9.63759 5.494903,-7.5376 2.52294,1.11631 3.57257,3.72141 2.48774,6.17449 -1.04802,2.36983 -3.54447,3.52284 -6.008042,2.77484 z m -51.239046,-2.34366 c -1.314842,-0.57285 -2.61981,-2.19281 -2.8788,-3.57368 -0.852073,-4.54312 4.903309,-7.55559 8.177719,-4.28036 3.698714,3.69964 -0.511401,9.93988 -5.298919,7.85404 z m 87.329758,-1.30024 c -1.52824,-0.52923 -2.41447,-1.31178 -2.96858,-2.62127 -0.97921,-2.31421 -0.15394,-4.82885 1.98787,-6.05707 2.27289,-1.30341 4.96886,-0.67195 6.43722,1.50778 0.61929,0.91925 0.72944,1.42478 0.6277,2.88124 -0.23671,3.38746 -3.02075,5.35024 -6.08421,4.28932 z m 47.69186,-1.2133 c -0.35101,-0.90591 0.0507,-2.97451 0.77468,-3.99189 0.76093,-1.06888 2.6173,-2.05338 3.59457,-1.90633 0.59423,0.0894 0.44662,0.39285 -1.36526,2.80698 -3.04918,4.0627 -2.7477,3.75255 -3.00399,3.09124 z m -98.861543,-0.90009 c -3.932017,-1.56831 -4.227783,-7.06376 -0.477889,-8.8795 1.622442,-0.78562 2.494248,-0.79202 4.170307,-0.0307 3.533069,1.60495 3.607518,6.70119 0.124804,8.54336 -1.463239,0.77398 -2.537505,0.87719 -3.817222,0.36679 z m 86.058183,-1.87015 c -1.45143,-0.88512 -2.30348,-2.41758 -2.30348,-4.14262 0,-0.86964 0.24888,-1.84167 0.63277,-2.4715 2.4703,-4.0526 8.91405,-2.38161 8.91663,2.31224 0.002,3.81512 -4.07499,6.23569 -7.24592,4.30188 z M 32.111549,164.28924 c -2.064827,-1.21498 -3.059632,-4.14823 -2.064159,-6.08634 1.680323,-3.27146 5.421093,-3.91409 7.898926,-1.35698 1.958332,2.021 1.615584,5.60346 -0.693425,7.24803 -1.423849,1.01413 -3.608719,1.09713 -5.141342,0.19529 z m 86.039291,-2.11856 c -1.20529,-1.12459 -1.32867,-1.38906 -1.44883,-3.10566 -0.11045,-1.57719 -0.0117,-2.05416 0.6197,-2.99125 2.58687,-3.83999 8.37486,-2.39377 8.76785,2.19077 0.25447,2.96821 -1.81534,5.13542 -4.90444,5.13542 -1.55254,0 -1.8428,-0.11759 -3.03428,-1.22928 z m -49.921026,-1.38056 c -1.742388,-0.89791 -2.607972,-2.30468 -2.607972,-4.23856 0,-1.9328 0.865638,-3.34027 2.607972,-4.2404 2.40339,-1.24165 4.621626,-0.58054 6.310484,1.88071 0.601006,0.87587 0.717242,1.38243 0.601751,2.62232 -0.335285,3.59977 -3.788159,5.58586 -6.912235,3.97593 z m 86.742196,-1.49631 c -2.44282,-1.49001 -3.21573,-3.93631 -1.99378,-6.31011 1.81214,-3.52014 6.68433,-3.56834 8.47065,-0.0838 0.90403,1.76349 0.90231,2.72221 -0.008,4.44398 -1.25309,2.37023 -4.28261,3.28344 -6.4689,1.94994 z M 17.275566,158.70115 c -0.782806,-0.39296 -1.376304,-1.0818 -2.015738,-2.33962 -0.835152,-1.64277 -0.877269,-1.89047 -0.536574,-3.15601 0.760087,-2.82346 3.613929,-4.35149 6.247913,-3.3453 3.262889,1.24642 4.296681,4.92604 2.113202,7.5216 -1.535756,1.82561 -3.783305,2.33609 -5.808803,1.31933 z m 86.352934,-1.68148 c -2.13532,-1.30214 -2.84479,-4.70687 -1.39045,-6.67198 2.09936,-2.83661 5.57694,-2.98268 7.81006,-0.32806 1.73858,2.06664 1.26076,5.31689 -1.00831,6.85913 -1.49244,1.01442 -3.87714,1.07651 -5.4113,0.14091 z m 86.4468,-1.90431 c -2.96279,-2.602 -1.90119,-7.22164 1.89444,-8.24397 1.31434,-0.35398 3.41303,-0.0114 3.80365,0.62072 0.19895,0.32188 -3.38636,7.44684 -4.13137,8.21022 -0.34425,0.35279 -0.61016,0.25316 -1.56672,-0.58697 z m -136.685754,0.0358 c -3.336382,-1.51568 -3.973175,-5.56088 -1.251646,-7.95101 2.061142,-1.81016 4.994003,-1.63269 6.787689,0.41071 2.09578,2.38757 1.362586,5.97457 -1.518243,7.42765 -1.71358,0.86434 -2.325428,0.88148 -4.0178,0.11265 z m 86.553784,-1.51835 c -3.22518,-1.59004 -3.44315,-6.27202 -0.38792,-8.33131 0.93681,-0.63144 1.41369,-0.73027 2.99055,-0.61983 1.71612,0.1202 1.98051,0.24361 3.10489,1.44924 1.10586,1.18585 1.22883,1.48657 1.22775,3.00247 -0.003,3.85876 -3.55719,6.16483 -6.93527,4.49943 z m -51.339974,-2.39482 c -1.542293,-1.03952 -2.295649,-2.60405 -2.138221,-4.44057 0.398082,-4.64412 6.36349,-6.06973 8.846148,-2.11404 0.512379,0.81638 0.6262,1.43281 0.53289,2.88586 -0.104306,1.62403 -0.258691,1.98779 -1.275182,3.00455 -1.011936,1.01218 -1.387449,1.17296 -3.003788,1.28611 -1.545351,0.1082 -2.029442,0.007 -2.961847,-0.62191 z m 87.206994,-1.22203 c -1.78257,-0.94196 -2.60667,-2.51618 -2.43034,-4.64241 0.11978,-1.44497 0.3285,-1.93282 1.22079,-2.85372 2.4853,-2.56483 6.22385,-1.92688 7.90654,1.34918 0.99729,1.94174 -0.005,4.88665 -2.06421,6.06779 -1.51409,0.86827 -3.08869,0.89517 -4.63278,0.0791 z m -137.0065,-0.32375 c -3.93899,-1.17969 -4.546957,-6.76618 -0.960192,-8.82303 2.268851,-1.30106 4.925957,-0.66597 6.443657,1.54016 0.621807,0.90386 0.723513,1.38529 0.616324,2.91758 -0.109534,1.56571 -0.286885,1.99868 -1.208246,2.94951 -0.593928,0.61294 -1.587794,1.25557 -2.208578,1.42807 -1.296846,0.36036 -1.440825,0.35971 -2.682965,-0.0122 z m 86.10917,-1.80295 c -4.42008,-2.29362 -2.76284,-9.01374 2.22281,-9.01374 3.59502,0 5.81991,3.59534 4.25985,6.88379 -1.08633,2.28987 -4.20184,3.31348 -6.48266,2.12995 z m -51.117609,-2.28257 c -1.697757,-1.04895 -2.18168,-1.84591 -2.306869,-3.79908 -0.09126,-1.42309 0.02537,-2.04584 0.534912,-2.85775 1.340445,-2.13577 3.961677,-2.88407 6.268018,-1.78937 3.251635,1.54339 3.52067,6.27894 0.472439,8.31579 -1.360498,0.90911 -3.6125,0.96821 -4.9685,0.13041 z m 87.102549,-1.22153 c -1.29009,-0.66913 -2.45518,-2.27225 -2.73476,-3.76309 -0.43516,-2.32013 1.61121,-4.94941 4.23859,-5.44609 1.29294,-0.24441 3.73941,0.9088 4.68305,2.2075 0.90549,1.24619 0.90384,3.97425 -0.003,5.18935 -1.6095,2.15625 -4.10855,2.88868 -6.18374,1.81233 z M 23.947871,143.99169 c -2.202121,-0.67821 -3.538295,-2.40288 -3.571657,-4.61014 -0.056,-3.70721 3.843574,-6.11454 7.015935,-4.33113 3.323647,1.86846 3.431512,6.48419 0.194655,8.33021 -1.196222,0.68222 -2.627468,0.92256 -3.638933,0.61106 z m 85.804209,-1.89851 c -2.30774,-1.40758 -3.1143,-3.57971 -2.20932,-5.94996 1.05617,-2.76613 4.54793,-3.92271 7.11557,-2.35687 1.37182,0.83659 2.42843,3.1367 2.17072,4.72544 -0.52833,3.25614 -4.39892,5.2149 -7.07697,3.58139 z m 87.25857,-1.27624 c -5.52552,-2.5085 -2.41589,-10.72267 3.39952,-8.97989 0.96775,0.29002 1.2394,0.52844 1.2263,1.07643 -0.0234,0.97708 -2.65589,8.28583 -3.02573,8.40005 -0.16561,0.0512 -0.88566,-0.17229 -1.60009,-0.49659 z M 58.664046,139.88479 c -1.222572,-0.64013 -2.542633,-2.82812 -2.542633,-4.21435 0,-1.33104 1.331604,-3.51388 2.555529,-4.18917 1.748611,-0.96478 4.160727,-0.65864 5.569177,0.70683 1.908876,1.85062 2.176472,3.96641 0.786226,6.21643 -1.208221,1.95543 -4.153377,2.64001 -6.368299,1.48026 z m 87.403784,-1.14117 c -3.2377,-1.41063 -3.9267,-5.7658 -1.27976,-8.09037 1.56933,-1.37829 3.30141,-1.5944 5.20021,-0.64883 1.79005,0.89149 2.6729,2.26802 2.70226,4.21382 0.0289,1.89989 -0.8785,3.3731 -2.62137,4.25674 -1.60197,0.8122 -2.59995,0.87919 -4.00134,0.26864 z M 9.0783352,138.21887 c -1.6160827,-0.34241 -2.6421546,-1.19168 -3.3363639,-2.76144 -1.0597672,-2.39639 -0.3840042,-4.44936 2.0042542,-6.08895 1.9510902,-1.33947 4.7715815,-0.62376 6.4609075,1.63946 0.79179,1.0608 0.846269,3.46626 0.110317,4.8715 -0.922365,1.76119 -3.189761,2.77364 -5.2391148,2.33943 z m 85.6450578,-1.78665 c -3.206593,-1.58086 -3.444662,-6.28232 -0.420455,-8.30313 0.79649,-0.53222 1.542934,-0.72304 2.828338,-0.72304 1.637282,0 1.833129,0.0869 3.137414,1.39147 1.30433,1.30463 1.39109,1.50051 1.39109,3.1382 0,3.81013 -3.597829,6.14242 -6.936387,4.4965 z m 87.701627,-1.06394 c -3.01676,-0.93617 -4.33755,-4.95903 -2.48328,-7.56373 2.66531,-3.74406 8.65509,-1.68617 8.65509,2.97363 0,3.04589 -3.28215,5.48685 -6.17181,4.5901 z M 43.350868,134.0092 c -3.935163,-2.62953 -2.14498,-8.83548 2.547605,-8.83166 4.873773,0.004 6.663934,6.38204 2.503419,8.91937 -1.443631,0.88041 -3.65978,0.84193 -5.051024,-0.0877 z m 87.416802,-1.15752 c -3.53315,-1.60495 -3.60756,-6.70119 -0.1248,-8.54336 1.68425,-0.89087 2.59755,-0.9095 4.29511,-0.0875 1.56619,0.75841 2.70674,2.57026 2.70674,4.30012 0,1.72985 -1.14055,3.54171 -2.70674,4.30012 -1.62245,0.78562 -2.49429,0.79202 -4.17031,0.0307 z m -51.07458,-2.18119 c -1.668032,-0.83825 -2.553955,-2.37798 -2.553955,-4.43874 0,-1.54462 0.11998,-1.84557 1.194188,-2.99556 2.340335,-2.50538 5.9618,-2.14825 7.736437,0.76297 2.409559,3.95278 -2.196736,8.77192 -6.37667,6.67133 z m 88.03848,-1.02009 c -3.16403,-0.73299 -4.71154,-3.89551 -3.27127,-6.68513 0.94532,-1.83096 2.06688,-2.62159 3.97072,-2.79901 1.71369,-0.1597 3.12968,0.56766 4.37322,2.24631 0.92616,1.25028 0.92407,3.96363 -0.004,5.20902 -1.20419,1.61595 -3.27425,2.44451 -5.06864,2.02881 z M 28.400917,128.28093 c -4.093488,-2.7593 -2.330737,-8.83813 2.562912,-8.83813 4.951625,0 6.565881,6.92275 2.107684,9.03884 -1.552659,0.73696 -3.397105,0.6577 -4.670596,-0.20071 z m 87.356943,-1.16689 c -2.42576,-1.12844 -3.44477,-3.75827 -2.3848,-6.15496 0.8684,-1.96383 2.29466,-2.91406 4.40354,-2.93394 2.81685,-0.0266 4.74174,1.90662 4.74174,4.76223 0,3.63014 -3.47585,5.85465 -6.76048,4.32667 z m 86.56402,-1.5391 c -2.08142,-1.0083 -3.0106,-3.6367 -2.11486,-5.98259 0.63958,-1.67511 1.93509,-2.69582 3.72665,-2.93618 l 1.29521,-0.17377 -0.22786,1.71909 c -0.23871,1.8005 -1.38694,7.66794 -1.52832,7.80936 -0.0453,0.0451 -0.56296,-0.1511 -1.15082,-0.43591 z M 64.863001,125.04683 c -1.30915,-0.57038 -2.619469,-2.19104 -2.875608,-3.5567 -0.267124,-1.42426 0.574224,-3.71773 1.684205,-4.59107 2.578924,-2.02909 6.160355,-1.16828 7.471144,1.79571 1.77766,4.01969 -2.259661,8.10353 -6.279741,6.35206 z m 86.253579,-1.76765 c -4.26818,-2.60309 -1.9644,-9.40577 2.9959,-8.84653 4.55586,0.51364 5.96198,6.61198 2.05483,8.91215 -1.28721,0.75782 -3.75311,0.72578 -5.05073,-0.0656 z m -137.664558,-0.605 c -1.219528,-0.6542 -2.554761,-2.83662 -2.543581,-4.15744 0.01186,-1.40524 1.121198,-3.39138 2.301753,-4.1212 2.185914,-1.3513 5.350509,-0.6508 6.664087,1.47515 2.583999,4.18206 -2.086231,9.1295 -6.422259,6.80349 z m 87.768138,-1.01263 c -2.839193,-0.8503 -4.27812,-4.62952 -2.665233,-6.99994 1.605263,-2.35921 3.673663,-3.02768 6.077423,-1.9641 1.8848,0.83395 2.75723,2.2123 2.75723,4.35632 0,2.07979 -0.87561,3.5144 -2.63142,4.31167 -1.46056,0.66319 -2.12618,0.71888 -3.538,0.29605 z m 85.86105,-1.8985 c -1.45133,-0.88513 -2.30348,-2.41758 -2.30348,-4.14261 0,-1.72503 0.85215,-3.25749 2.30348,-4.14262 2.17309,-1.32523 5.26185,-0.54462 6.61253,1.6711 1.91252,3.13756 -0.43604,7.24709 -4.14161,7.24709 -0.86946,0 -1.84117,-0.24894 -2.47092,-0.63296 z M 49.568882,119.11811 c -2.475761,-1.22581 -3.443045,-4.51547 -1.966024,-6.68621 1.148741,-1.68828 2.269842,-2.34898 3.98579,-2.34898 2.906336,0 4.851215,1.92888 4.851215,4.81132 0,1.90142 -0.890219,3.39899 -2.542644,4.2773 -1.433263,0.76183 -2.713691,0.74602 -4.328337,-0.0534 z m 86.560318,-1.58477 c -1.46183,-0.89151 -2.30325,-2.41582 -2.30468,-4.17515 -0.003,-3.57645 3.82733,-5.84716 7.00968,-4.15561 4.40234,2.33998 2.75141,8.96372 -2.23409,8.96372 -0.86945,0 -1.84126,-0.24894 -2.47091,-0.63296 z M 1.2422637,116.34526 c -0.1043203,-0.66144 -0.27322214,-2.42099 -0.37533746,-3.91013 -0.10211531,-1.48912 -0.24703406,-3.10168 -0.3220416,-3.58346 -0.12063894,-0.77486 -0.0362326,-0.87582 0.73139996,-0.87476 0.4772772,6.4e-4 1.3348208,0.28602 1.9056514,0.63414 3.5423067,2.16032 2.8774652,7.56088 -1.0754859,8.73627 -0.5846212,0.17382 -0.6997907,0.0403 -0.8641864,-1.00206 z M 86.31649,115.95493 c -2.214411,-0.69423 -3.440645,-2.34539 -3.441957,-4.63464 -0.0013,-2.01436 0.827049,-3.42386 2.519136,-4.28732 1.645795,-0.83983 2.786419,-0.82081 4.479467,0.0747 3.246095,1.71702 3.414484,6.01359 0.322467,8.22801 -0.974599,0.69798 -2.732737,0.97863 -3.879113,0.61923 z m 85.88007,-1.88273 c -1.37409,-0.84898 -1.96422,-1.62183 -2.35224,-3.0805 -0.46179,-1.73571 -0.004,-3.25025 1.39025,-4.60219 0.95063,-0.92159 1.38349,-1.09898 2.94882,-1.20854 1.53185,-0.10721 2.01321,-0.006 2.91684,0.61648 2.20559,1.51807 2.84052,4.17585 1.53976,6.44527 -1.28336,2.23899 -4.36463,3.11386 -6.44343,1.82948 z M 35.26291,113.80983 c -0.350299,-0.0962 -1.033151,-0.4562 -1.517446,-0.79993 -2.673138,-1.89731 -2.375375,-6.6107 0.513221,-8.12396 1.427535,-0.74784 3.820206,-0.69352 4.90649,0.1114 3.026954,2.24291 3.049919,5.92733 0.05083,8.14853 -0.854859,0.63313 -2.847102,0.96774 -3.953059,0.66396 z m 85.69665,-1.98681 c -1.43343,-0.94517 -2.22589,-2.44569 -2.22589,-4.21443 0,-4.92645 6.86214,-6.51992 9.00553,-2.0912 0.36875,0.76194 0.67043,1.77581 0.67043,2.25305 0,1.30305 -1.16828,3.33555 -2.3216,4.03895 -1.35727,0.82776 -3.8837,0.8345 -5.12847,0.0136 z m -49.953618,-1.75066 c -1.633108,-0.58792 -2.14765,-1.06934 -2.859546,-2.67549 -2.067617,-4.66486 3.697999,-8.821981 7.547078,-5.44159 3.92849,3.45012 0.214284,9.88177 -4.687532,8.11708 z m 86.067218,-1.73204 c -1.27359,-0.68321 -2.55057,-2.84689 -2.55057,-4.32167 0,-2.42669 2.24178,-4.64325 4.69615,-4.64325 2.9916,0 4.97981,1.93089 4.97981,4.83628 0,3.55566 -3.93893,5.83799 -7.12539,4.12864 z M 19.643043,107.8462 c -1.286911,-0.56068 -2.618205,-2.18428 -2.863521,-3.49224 -0.49074,-2.61654 1.416172,-5.339274 4.051345,-5.784595 2.91188,-0.492084 5.961624,2.499845 5.518666,5.414045 -0.488076,3.2111 -3.810274,5.12462 -6.70649,3.86279 z m 185.963847,-0.66089 c -0.10911,-0.43472 -0.0552,-1.33058 0.12023,-1.99081 0.31014,-1.16858 0.3195,-1.14762 0.3515,0.7904 0.0347,2.08934 -0.13829,2.5292 -0.47173,1.20041 z m -99.7749,-1.17222 c -2.20551,-1.51807 -2.84042,-4.17585 -1.53976,-6.445266 2.12482,-3.707099 7.65356,-2.984968 8.77131,1.145646 0.4571,1.68952 -0.0173,3.34773 -1.33465,4.66553 -0.97236,0.97258 -1.36373,1.13739 -2.96736,1.24965 -1.54576,0.10821 -2.02397,0.008 -2.92954,-0.61556 z m 87.2345,-1.30231 c -4.35784,-2.23515 -2.73703,-8.961725 2.15942,-8.961725 2.89219,0 4.83645,1.990336 4.83389,4.948605 -0.002,1.79444 -0.90385,3.25458 -2.5212,4.0799 -1.64035,0.83702 -2.74203,0.82057 -4.47211,-0.0668 z M 56.02072,104.31626 c -2.991234,-1.0359 -4.216248,-4.00736 -2.798229,-6.787599 1.155111,-2.264779 4.096904,-3.209918 6.395527,-2.054762 3.208401,1.612365 3.494047,6.534921 0.484018,8.341131 -1.370083,0.82215 -2.687446,0.98394 -4.081316,0.50123 z m 86.08867,-1.67642 c -4.42988,-2.22618 -2.75714,-8.9956 2.22281,-8.9956 2.73161,0 4.77336,2.055618 4.7755,4.808098 0.002,2.606042 -2.15026,4.744432 -4.7755,4.744432 -0.61299,0 -1.61332,-0.25062 -2.22281,-0.55693 z M 4.8510545,102.20286 c -2.6136578,-1.04247 -3.93740969,-4.269863 -2.7184299,-6.627697 1.2161333,-2.352332 3.6875129,-3.335081 6.0843987,-2.419472 3.8919727,1.48673 4.0996657,7.084529 0.3264477,8.798569 -1.4441425,0.65602 -2.4937424,0.72669 -3.6924165,0.2486 z m 86.0581525,-1.87015 c -4.142348,-2.526253 -2.371374,-8.918181 2.4709,-8.918181 2.717066,0 4.774376,2.057819 4.774376,4.77557 0,2.717749 -2.05731,4.775571 -4.774376,4.775571 -0.869429,0 -1.841209,-0.24894 -2.4709,-0.63296 z m 87.974843,-0.872186 c -1.96714,-0.492665 -3.39683,-2.489332 -3.39683,-4.744079 0,-1.937164 0.87431,-3.312138 2.67675,-4.209759 1.89879,-0.945572 3.63077,-0.729466 5.2002,0.648823 3.82767,3.361571 0.4895,9.549621 -4.48012,8.305015 z M 41.191004,98.729294 c -0.592802,-0.135605 -1.586242,-0.755114 -2.207662,-1.376688 -0.982972,-0.983217 -1.146655,-1.370335 -1.259139,-2.977869 -0.108155,-1.54574 -0.0066,-2.029948 0.62176,-2.962591 2.692693,-3.997057 8.858836,-2.093329 8.858836,2.735065 0,2.937689 -3.048476,5.260411 -6.013795,4.582083 z m 86.104026,-1.714726 c -2.11389,-0.939774 -3.31728,-3.37452 -2.71944,-5.502056 0.67503,-2.402338 2.22402,-3.598947 4.66272,-3.602098 1.9408,-0.0026 3.42776,0.873406 4.31379,2.541173 2.07487,3.905504 -2.18475,8.373383 -6.25707,6.562981 z M 76.502236,95.010989 c -0.262719,-0.09527 -0.946179,-0.616442 -1.518789,-1.158156 -3.492803,-3.30432 -0.572931,-8.85556 4.246438,-8.073287 1.622209,0.263313 2.884877,1.316469 3.495352,2.915379 1.260008,3.300109 -1.019876,6.586242 -4.519655,6.514435 -0.67412,-0.01382 -1.440626,-0.103095 -1.703346,-0.198371 z M 163.2642,93.529575 c -3.24626,-1.471943 -3.92679,-5.782959 -1.27986,-8.107609 2.86944,-2.520067 7.27943,-0.862566 8.01145,3.011164 0.25284,1.337726 -0.77642,3.630174 -2.03104,4.52376 -1.24076,0.883772 -3.42703,1.150126 -4.70055,0.572685 z M 24.65277,92.358051 c -1.371858,-0.836601 -2.428429,-3.136705 -2.170683,-4.725443 0.367725,-2.266536 2.576268,-4.183715 4.819558,-4.183715 0.864197,0 1.71207,0.254081 2.39162,0.716693 2.358617,1.605665 3.026909,3.674553 1.963613,6.07893 -0.833752,1.885295 -2.21176,2.757898 -4.355233,2.757898 -1.037752,0 -1.960217,-0.224398 -2.648875,-0.644363 z m 87.11526,-1.317225 c -2.34663,-1.396981 -3.13252,-4.843286 -1.57966,-6.927294 2.78758,-3.741214 8.77395,-1.910573 8.77395,2.683097 0,3.721715 -4.05431,6.1135 -7.19429,4.244197 z m 87.87379,-1.058429 c -5.44191,-1.884599 -3.91757,-9.775303 1.79637,-9.298814 0.84505,0.07047 1.74617,0.337935 2.00259,0.594371 0.65974,0.659996 1.63724,6.496695 1.20318,7.184972 -0.96096,1.523858 -3.10705,2.175755 -5.00214,1.519471 z M 60.967642,88.971224 c -4.341963,-2.140606 -2.767937,-9.026163 2.063362,-9.026163 3.3427,0 5.654518,2.876537 4.812549,5.988125 -0.802789,2.966783 -4.081769,4.41556 -6.875911,3.038038 z m 87.002448,-1.387603 c -1.79952,-0.890958 -2.80726,-2.724895 -2.6123,-4.753954 0.17885,-1.862112 0.96502,-2.996744 2.65754,-3.835568 1.66307,-0.824249 2.54361,-0.808771 4.26668,0.075 3.4332,1.760896 3.43749,6.618796 0.007,8.433111 -1.68712,0.892391 -2.64502,0.910442 -4.31936,0.0814 z M 9.6276468,86.576403 C 8.0853573,85.536889 7.3320061,83.972358 7.4894289,82.135835 7.882406,77.551294 13.670452,76.105079 16.257325,79.945061 c 0.6283,0.932644 0.729915,1.416851 0.621762,2.962591 -0.113123,1.616741 -0.27387,1.992352 -1.285805,3.00454 -1.011926,1.012186 -1.387451,1.172971 -3.00379,1.286122 -1.545351,0.108185 -2.029431,0.0066 -2.9618452,-0.621911 z M 96.939503,85.479124 c -4.458224,-2.273503 -2.827651,-9.111402 2.172713,-9.111402 3.595674,0 5.829904,3.650184 4.259814,6.95967 -1.0721,2.259819 -4.181164,3.299832 -6.432527,2.151732 z m 86.447857,-1.679177 c -3.05703,-2.015977 -2.80882,-6.761251 0.43906,-8.393447 4.11766,-2.069337 8.51058,2.324627 6.44171,6.443393 -1.19422,2.377525 -4.7181,3.376226 -6.88077,1.950054 z M 45.689246,83.151006 c -4.131046,-2.594676 -2.377513,-8.937105 2.470901,-8.937105 4.610564,0 6.530651,5.971711 2.799645,8.707251 -1.284054,0.941463 -3.952308,1.057825 -5.270546,0.229854 z m 87.185994,-1.356365 c -1.72078,-0.886785 -2.66108,-2.384395 -2.66108,-4.238556 0,-1.853072 0.94036,-3.351418 2.66108,-4.240404 3.28688,-1.698081 6.83937,0.504465 6.83937,4.240404 0,3.712089 -3.56895,5.92389 -6.83937,4.238556 z M 82.048109,79.810829 c -2.069654,-0.901355 -3.266019,-3.421788 -2.67185,-5.628913 0.954517,-3.545676 5.05835,-4.747031 7.937651,-2.323657 4.036717,3.397526 -0.386471,10.077562 -5.265801,7.95257 z m 86.225781,-1.786635 c -1.37182,-0.836601 -2.42843,-3.136704 -2.17062,-4.725443 0.50934,-3.139643 4.16181,-5.116776 6.86736,-3.717361 4.61637,2.387835 3.07798,9.092315 -2.08544,9.088359 -0.99824,-6.37e-4 -1.93282,-0.231795 -2.6113,-0.645555 z M 30.776356,77.431555 c -2.349692,-1.433184 -3.156825,-3.798676 -2.106507,-6.173669 0.808518,-1.828264 2.316578,-2.780315 4.401495,-2.778719 2.039433,0.0016 3.482158,0.890648 4.273011,2.633263 0.780524,1.719855 0.778166,2.582263 -0.01152,4.214001 -1.163215,2.403486 -4.376061,3.435051 -6.556453,2.105124 z m 87.130934,-1.388489 c -1.99527,-1.019783 -2.71333,-2.136728 -2.71333,-4.220524 0,-1.842341 0.5662,-2.906689 2.19253,-4.12121 1.21481,-0.907205 3.94224,-0.908853 5.18808,-0.0032 1.3352,0.970657 2.42106,3.326127 2.16439,4.694912 -0.32734,1.745331 -1.31678,3.074676 -2.78453,3.741107 -1.74297,0.791423 -2.34697,0.777822 -4.04714,-0.09116 z M 67.092158,74.099361 c -3.246345,-1.47239 -3.926804,-5.783084 -1.279828,-8.107733 3.059796,-2.687216 7.933443,-0.497458 7.928355,3.562266 -0.0044,3.461872 -3.607012,5.924954 -6.648527,4.545467 z m 86.233312,-1.797304 c -2.12841,-1.298055 -2.88473,-3.940864 -1.78893,-6.250822 2.11252,-4.452908 9.03947,-2.861606 9.03544,2.075682 -0.003,3.739945 -4.09461,6.097342 -7.24651,4.17514 z M 15.747684,71.770595 c -3.206584,-1.580857 -3.444652,-6.282315 -0.420445,-8.30312 0.796478,-0.532221 1.542925,-0.723042 2.82834,-0.723042 1.637281,0 1.833118,0.08686 3.13741,1.391473 1.304283,1.304617 1.391123,1.500509 1.391123,3.138197 0,3.810121 -3.597869,6.142414 -6.936428,4.496492 z m 87.701576,-1.073872 c -1.89476,-0.567453 -3.38169,-2.623768 -3.38169,-4.676507 0,-2.533741 2.28539,-4.857954 4.7767,-4.857954 1.5074,0 3.46299,1.17995 4.20598,2.537761 0.96619,1.765775 0.65823,4.169528 -0.71587,5.587611 -0.59044,0.609263 -1.58131,1.248887 -2.20211,1.42139 -1.29686,0.360363 -1.44084,0.359704 -2.68301,-0.01229 z m 85.86115,-1.898497 c -1.69413,-1.03315 -2.36081,-2.400322 -2.22233,-4.556962 0.10431,-1.624031 0.25864,-1.987791 1.27518,-3.00454 1.01196,-1.012186 1.38741,-1.172971 3.0038,-1.286122 1.54536,-0.108185 2.0294,-0.0066 2.96185,0.621911 3.07918,2.075408 2.83052,6.791658 -0.43996,8.343986 -1.46917,0.697365 -3.31948,0.649566 -4.57854,-0.118273 z M 51.674533,68.079813 c -4.483645,-2.299674 -2.791654,-8.961724 2.276039,-8.961724 4.889315,0 6.501296,6.661082 2.166823,8.953787 -1.721339,0.910489 -2.679829,0.912202 -4.442862,0.008 z m 87.084777,-1.181584 c -1.08162,-0.450431 -2.42637,-2.113652 -2.70383,-3.343984 -0.8903,-3.948768 3.18762,-7.142481 6.88147,-5.389227 3.25155,1.543387 3.52059,6.278933 0.47244,8.315795 -1.12658,0.752739 -3.36291,0.953485 -4.65008,0.417416 z M 88.125677,64.817631 c -5.459971,-1.947962 -3.175556,-10.335084 2.523689,-9.265628 2.457019,0.461054 4.341011,3.228147 3.878155,5.696005 -0.529267,2.821911 -3.638393,4.55554 -6.401844,3.569623 z m 86.271793,-1.719933 c -2.30764,-1.407584 -3.1142,-3.579711 -2.20922,-5.949951 1.55333,-4.068487 7.37996,-4.068487 8.9333,0 0.67188,1.759799 0.44265,3.289821 -0.69586,4.64316 -1.62556,1.932356 -4.11711,2.472469 -6.02822,1.306791 z M 37.492056,62.829557 c -2.019046,-0.505658 -3.902609,-3.329316 -3.531347,-5.293851 0.732063,-3.87373 5.142001,-5.531231 8.011476,-3.011164 3.827657,3.361571 0.489523,9.549627 -4.480129,8.305015 z m 85.448254,-2.146903 c -2.92463,-1.987892 -2.656,-6.755289 0.46431,-8.236314 3.28681,-1.560084 7.03819,0.671984 7.03819,4.187684 0,3.933899 -4.27621,6.2415 -7.5025,4.04863 z M 73.217038,59.084973 c -1.528205,-0.529231 -2.414428,-1.311786 -2.968536,-2.621279 -1.411054,-3.334651 1.334275,-7.093355 4.888265,-6.69267 1.820299,0.205227 2.921993,1.006747 3.847366,2.799091 1.918025,3.714991 -1.782127,7.894897 -5.767095,6.514858 z M 159.3688,57.436739 c -2.32558,-1.146511 -3.34666,-4.575895 -2.00076,-6.71973 1.0688,-1.702519 2.42409,-2.361055 4.57469,-2.222869 1.62363,0.104325 1.98727,0.258748 3.00381,1.275499 1.01195,1.012187 1.17268,1.387798 1.28575,3.004539 0.10819,1.54574 0.007,2.029948 -0.62168,2.962591 -1.38456,2.055192 -4.04916,2.780922 -6.24181,1.69997 z M 22.239656,56.998648 c -2.155375,-0.645153 -3.674412,-3.239062 -3.243217,-5.53812 0.444652,-2.370779 3.126229,-4.303059 5.380297,-3.876904 2.528005,0.477944 4.09256,2.331622 4.09256,4.848847 0,1.892934 -0.88025,3.310462 -2.595826,4.180257 -1.499645,0.760312 -2.151673,0.82956 -3.633814,0.38592 z M 108.10555,55.10143 c -2.21515,-1.350945 -2.99556,-4.440565 -1.67071,-6.614133 2.52561,-4.143385 8.91592,-2.371973 8.91592,2.47152 0,3.706491 -4.10849,6.055603 -7.24521,4.142613 z M 57.713661,53.282102 c -0.26272,-0.09606 -0.813722,-0.478928 -1.224441,-0.850809 -2.548099,-2.307123 -2.092218,-6.299341 0.901019,-7.890346 3.159229,-1.679233 7.012571,0.605192 7.009692,4.155631 -0.0022,2.768036 -2.060053,4.829539 -4.775565,4.784141 -0.788168,-0.01319 -1.647986,-0.102551 -1.910705,-0.198617 z m 86.624819,-1.607085 c -1.62348,-0.815874 -2.55387,-2.385807 -2.55387,-4.309172 0,-2.798643 1.86022,-4.726351 4.60096,-4.767791 2.53482,-0.03833 4.57907,1.763533 4.86337,4.286636 0.42544,3.774849 -3.5069,6.500735 -6.91046,4.790327 z M 93.220888,49.410582 c -1.344504,-0.830701 -1.95713,-1.61405 -2.326737,-2.975135 -1.47852,-5.444807 6.206866,-8.407979 8.921817,-3.439884 0.772202,1.413163 0.623982,3.678756 -0.32838,5.016516 -1.346926,1.892057 -4.37438,2.567674 -6.2667,1.398503 z m 87.787242,-0.909613 c -1.24066,-0.236391 -3.14261,-2.401709 -3.38853,-3.857646 -0.42844,-2.53605 1.43801,-5.145153 4.02815,-5.631188 1.56229,-0.293163 2.14086,0.08893 4.06382,2.68345 1.58967,2.144829 1.63423,2.261861 1.31508,3.447541 -0.39863,1.48062 -1.74812,2.849051 -3.22848,3.273725 -1.11397,0.319556 -1.49423,0.33102 -2.79004,0.08412 z M 41.983805,47.161403 c -1.433341,-0.945168 -2.22585,-2.445697 -2.22585,-4.214437 0,-1.74423 0.651538,-2.857502 2.3484,-4.012662 2.920261,-1.988013 7.32759,0.56609 7.32759,4.246432 0,1.312238 -0.986555,3.027804 -2.228983,3.876088 -1.360245,0.928716 -3.894371,0.979473 -5.221157,0.104579 z M 129.50846,46.05135 c -1.30922,-0.570372 -2.61952,-2.191047 -2.87559,-3.556697 -0.26712,-1.424263 0.57421,-3.717734 1.68419,-4.591067 2.57887,-2.029088 6.16032,-1.168286 7.47109,1.795694 1.77771,4.019711 -2.25966,8.103544 -6.27969,6.35207 z M 78.097456,43.678702 c -1.248721,-0.669858 -2.550568,-2.839011 -2.550568,-4.249758 0,-1.34817 1.150888,-3.375404 2.321605,-4.089409 2.122829,-1.294674 5.364929,-0.546117 6.651226,1.535682 2.583998,4.182046 -2.086233,9.129504 -6.422263,6.803485 z M 165.86555,42.66607 c -2.88171,-0.863032 -4.30218,-4.594024 -2.66518,-6.999939 1.60528,-2.359213 3.67361,-3.027673 6.07737,-1.964101 1.87097,0.82782 2.7568,2.214727 2.75842,4.31872 0.002,2.028923 -0.95168,3.585407 -2.67525,4.36837 -1.41861,0.644423 -2.09054,0.697665 -3.49536,0.27695 z M 26.969572,41.446542 c -1.207375,-0.73646 -2.051571,-1.997371 -2.280018,-3.405463 -0.158511,-0.977034 0.01489,-1.295302 1.808466,-3.318839 1.732941,-1.955154 2.12259,-2.238171 3.081387,-2.238171 4.076577,0 6.252178,5.234252 3.373937,8.117323 -0.481217,0.482026 -1.206701,1.002899 -1.612188,1.157498 -1.224364,0.466805 -3.342314,0.315481 -4.371584,-0.312348 z M 114.09084,40.04916 c -4.35786,-2.235155 -2.73705,-8.961723 2.15941,-8.961723 5.07328,0 6.76599,6.710784 2.29239,9.088622 -1.46886,0.780778 -2.75355,0.744159 -4.4518,-0.126899 z M 63.133668,37.97822 c -4.429844,-2.226185 -2.75712,-8.995602 2.222799,-8.995602 2.731627,0 4.773338,2.05562 4.775564,4.8081 0.0022,2.606047 -2.150301,4.744433 -4.775564,4.744433 -0.613009,0 -1.613278,-0.250619 -2.222799,-0.556931 z M 150.9619,36.959462 c -2.21437,-0.694243 -3.44058,-2.345401 -3.44189,-4.634658 -0.001,-2.079665 0.87389,-3.514095 2.63049,-4.311682 1.71939,-0.780722 2.58158,-0.778359 4.21295,0.01155 2.49388,1.207607 3.4758,4.509084 1.99023,6.692343 -1.34762,1.980491 -3.44489,2.852791 -5.39178,2.242443 z M 99.112216,34.461854 c -3.327468,-1.818504 -3.450176,-6.872952 -0.208097,-8.571385 3.157841,-1.65429 6.793661,0.356547 7.127651,3.941999 0.11545,1.239895 -6.4e-4,1.746441 -0.60178,2.622312 -1.62427,2.367122 -4.17579,3.177702 -6.317774,2.007074 z M 48.000927,32.209955 c -2.056002,-1.2703 -2.974163,-3.319573 -2.401077,-5.359063 0.675051,-2.402339 2.224008,-3.598948 4.662742,-3.602099 3.806914,-0.0049 6.044375,3.773484 4.189456,7.074704 -1.266669,2.254297 -4.381533,3.165152 -6.451121,1.886458 z m 87.650463,-1.136756 c -1.63123,-0.582217 -2.14703,-1.064144 -2.85957,-2.671807 -2.06757,-4.664857 3.69799,-8.821979 7.5471,-5.441594 2.64781,2.325405 2.02577,6.483818 -1.18812,7.943145 -1.58572,0.720006 -1.91437,0.735996 -3.49941,0.170256 z M 84.288477,28.86808 c -3.29331,-1.493694 -3.940649,-5.874802 -1.201705,-8.133034 2.978448,-2.455706 7.204013,-0.823498 7.939008,3.066604 0.239885,1.2696 -0.901449,3.735753 -2.147208,4.639631 -1.080035,0.78363 -3.340026,0.993771 -4.590095,0.426799 z m 86.253573,-1.785007 c -1.08034,-0.658852 -1.79553,-1.597696 -2.17037,-2.848926 l -0.22901,-0.764463 0.91239,0.681579 c 0.50184,0.37487 1.6289,1.325118 2.5046,2.111667 1.46534,1.316068 1.52882,1.430511 0.7962,1.435444 -0.4379,0.003 -1.25408,-0.273937 -1.81381,-0.615301 z M 34.485562,26.830158 c 0.01037,-0.131392 0.963363,-1.027259 2.117863,-1.990813 3.597332,-3.002374 3.855866,-3.101983 3.234334,-1.24614 -0.470186,1.403946 -1.448211,2.491302 -2.733534,3.039108 -1.103687,0.470392 -2.649265,0.587166 -2.618663,0.197845 z m 86.281288,-1.405195 c -4.07399,-1.166024 -4.75261,-6.677298 -1.08139,-8.782529 3.19043,-1.829606 7.13198,0.367361 7.13198,3.975353 0,3.451503 -2.85684,5.721264 -6.05059,4.807176 z M 68.994357,22.922002 c -2.47576,-1.22581 -3.443045,-4.515461 -1.966023,-6.686209 1.654277,-2.431235 3.914498,-3.097722 6.255849,-1.8447 3.458761,1.851022 3.471412,6.688291 0.02214,8.457439 -1.723687,0.884087 -2.643111,0.899752 -4.311943,0.07347 z m 86.560313,-1.584767 c -1.42715,-0.870331 -2.30324,-2.420898 -2.30468,-4.078799 -0.001,-1.267984 0.71105,-3.249115 1.16801,-3.249115 0.29996,0 6.18883,3.701972 7.21462,4.535352 l 0.90023,0.73139 -0.6895,0.876824 c -1.46279,1.860101 -4.30347,2.39508 -6.28868,1.184348 z m -49.63069,-1.58551 c -4.30794,-0.994658 -5.026,-7.020468 -1.07333,-9.006844 3.40356,-1.7104081 7.3358,1.015475 6.91046,4.790327 -0.32353,2.871345 -3.0702,4.855389 -5.83713,4.216517 z M 53.978448,17.222993 c -0.760961,-0.355039 -1.626743,-1.086771 -1.990293,-1.682135 -0.7915,-1.296177 -0.948714,-1.154941 4.222028,-3.792802 l 3.750959,-1.9135523 0.50129,1.2000593 c 1.698195,4.065369 -2.482437,8.055432 -6.483984,6.18843 z m 86.535242,-1.574942 c -1.20722,-0.647618 -2.55057,-2.826209 -2.55057,-4.136504 0,-1.179645 1.24566,-3.5551088 2.05842,-3.9255397 0.57091,-0.2601569 1.35757,-0.030098 4.17881,1.2219782 3.22503,1.4312995 3.48208,1.6111965 3.56575,2.4959465 0.13228,1.399532 -1.1535,3.662901 -2.47361,4.354103 -1.42326,0.745221 -3.37859,0.741135 -4.7788,-0.01 z M 89.298205,13.362574 C 87.16296,12.060437 86.453435,8.6557084 87.907806,6.6905959 89.958942,3.9191342 93.51586,3.744924 95.673881,6.3102304 c 1.767348,2.100893 1.225207,5.6478196 -1.077916,7.0523436 -1.416362,0.863743 -3.881398,0.863743 -5.29776,0 z m 36.371535,-3.312383 c -2.14621,-0.9345245 -3.22645,-3.9756736 -2.24582,-6.3230761 0.27215,-0.6516841 0.70195,-1.1848802 0.95485,-1.1848802 0.25301,0 2.15905,0.4296298 4.23572,0.9547328 2.07668,0.5251032 3.81164,0.9551188 3.85544,0.9555907 0.044,4.778e-4 0.0795,0.6100463 0.0788,1.3546106 -0.003,3.4733415 -3.57952,5.6794772 -6.87859,4.2430222 z M 74.369996,7.6714884 C 73.159718,6.9110435 72.14634,5.4860008 72.553875,5.1176115 72.711278,4.9753355 74.48804,4.4222882 76.502236,3.8886176 82.284367,2.3566167 81.699627,2.3220706 81.520657,4.1850999 81.395136,5.4917634 81.155228,5.9999833 80.224412,6.931024 79.223479,7.9322107 78.853726,8.0882004 77.234927,8.1922129 75.791934,8.2849299 75.164937,8.1709669 74.369996,7.6714884 Z M 110.33464,4.1555288 c -1.09394,-0.6871429 -2.30266,-2.3821881 -2.30457,-3.23215115 -9.6e-4,-0.41542776 0.32056,-0.48260443 1.8298,-0.38224798 3.03336,0.20169203 7.16851,0.70375613 7.3581,0.89336613 0.27183,0.271979 -0.76123,1.8291884 -1.66782,2.5138227 -1.21785,0.9196867 -3.91077,1.0266769 -5.21551,0.2072103 z"
       id="path431"
       inkscape:label="motif"
       mask="url(#mask4132)" />
    <text
       xml:space="preserve"
       style="font-weight:bold;font-size:34.6667px;font-family:'Josefin Sans';-inkscape-font-specification:'Josefin Sans, Bold';text-align:center;text-anchor:middle;fill:#4f7cac;fill-opacity:1;stroke-width:6.96189;stroke-linecap:round;stroke-linejoin:round;stroke-miterlimit:6.6;stroke-opacity:0.46538"
       x="103.30798"
       y="243.13782"
       id="text6477"><tspan
         sodipodi:role="line"
         id="tspan6475"
         x="103.30798"
         y="243.13782">evendev.net</tspan></text>
  </g>
</svg>
