<?xml version="1.0" encoding="UTF-8" standalone="no"?>
<!-- Created with Inkscape (http://www.inkscape.org/) -->

<svg
   width="175.3111mm"
   height="175.3111mm"
   viewBox="0 0 175.3111 175.3111"
   version="1.1"
   id="svg5"
   inkscape:version="1.2.2 (b0a8486541, 2022-12-01)"
   sodipodi:docname="logo_2.svg"
   xmlns:inkscape="http://www.inkscape.org/namespaces/inkscape"
   xmlns:sodipodi="http://sodipodi.sourceforge.net/DTD/sodipodi-0.dtd"
   xmlns="http://www.w3.org/2000/svg"
   xmlns:svg="http://www.w3.org/2000/svg">
  <sodipodi:namedview
     id="namedview7"
     pagecolor="#ffffff"
     bordercolor="#000000"
     borderopacity="0.25"
     inkscape:showpageshadow="2"
     inkscape:pageopacity="0.0"
     inkscape:pagecheckerboard="0"
     inkscape:deskcolor="#d1d1d1"
     inkscape:document-units="mm"
     showgrid="false"
     inkscape:zoom="1.3805738"
     inkscape:cx="319.79457"
     inkscape:cy="382.81185"
     inkscape:window-width="1920"
     inkscape:window-height="979"
     inkscape:window-x="0"
     inkscape:window-y="28"
     inkscape:window-maximized="1"
     inkscape:current-layer="layer1" />
  <defs
     id="defs2">
    <rect
       x="200.05791"
       y="534.34729"
       width="476.88541"
       height="134.31075"
       id="rect3509" />
    <rect
       x="310.97757"
       y="586.97797"
       width="108.02591"
       height="64.602554"
       id="rect3395" />
  </defs>
  <g
     inkscape:label="Calque 1"
     inkscape:groupmode="layer"
     id="layer1"
     transform="translate(-18.132649,-80.434414)">
    <circle
       style="fill:#d40000;fill-opacity:0;stroke:#3785b0;stroke-width:6.165;stroke-dasharray:none;stroke-opacity:1"
       id="path111"
       cx="105.7882"
       cy="168.08997"
       r="84.573051" />
    <g
       aria-label="evendev.net"
       transform="matrix(0.35503533,0,0,0.35503533,-50.17667,-38.860958)"
       id="text3507"
       style="font-weight:bold;font-size:77.3333px;font-family:'Linux Biolinum';-inkscape-font-specification:'Linux Biolinum, Bold';text-align:center;text-anchor:middle;white-space:pre;shape-inside:url(#rect3509);fill:#3785b0;stroke:#3785b0;stroke-width:3.66161;stroke-dasharray:none;stroke-opacity:1">
      <path
         d="m 244.58245,583.39644 h 11.78124 q 0.15104,-0.15104 0.15104,-1.6237 0,-4.1914 -1.66146,-5.89062 -1.66145,-1.69922 -3.70051,-1.69922 -2.71875,0 -4.15365,2.22787 -2.34114,3.43619 -2.41666,6.98567 z m 20.8815,11.29036 q 1.17057,0 1.17057,2.37891 -5.73958,8.34504 -14.46223,8.34504 -8.34505,0 -12.61198,-3.85156 -2.3789,-2.15234 -3.77604,-5.58854 -1.39713,-3.47395 -1.39713,-6.94791 0,-8.49609 5.13541,-13.59374 5.13542,-5.09766 12.12109,-5.09766 7.8164,0 11.2526,4.04037 3.4362,4.0026 3.4362,9.70442 0,2.79427 -2.26563,2.79427 h -19.78645 v 1.24609 q 0,6.57031 2.86979,9.02474 2.86979,2.41666 8.04297,2.41666 2.30338,0 5.17317,-1.28385 2.86979,-1.28385 5.09766,-3.58724 z"
         id="path4881"
         style="stroke:#3785b0;stroke-width:3.66161;stroke-dasharray:none;stroke-opacity:1" />
      <path
         d="m 284.68399,604.88211 q -7.89192,-20.65494 -13.85807,-33.64452 1.2461,0.22657 6.72135,0.22657 4.72005,0 5.73959,-0.22657 5.02213,15.93489 8.79817,24.92187 h 0.22656 q 2.49219,-5.39974 9.4401,-24.92187 0.67969,0.22657 3.32292,0.22657 3.70051,0 4.41796,-0.22657 -9.8177,21.03255 -14.99088,33.64452 -0.67968,-0.22656 -4.04036,-0.22656 -5.02213,0 -5.77734,0.22656 z"
         id="path4883"
         style="stroke:#3785b0;stroke-width:3.66161;stroke-dasharray:none;stroke-opacity:1" />
      <path
         d="m 323.766,583.39644 h 11.78125 q 0.15104,-0.15104 0.15104,-1.6237 0,-4.1914 -1.66146,-5.89062 -1.66146,-1.69922 -3.70052,-1.69922 -2.71875,0 -4.15364,2.22787 -2.34115,3.43619 -2.41667,6.98567 z m 20.8815,11.29036 q 1.17057,0 1.17057,2.37891 -5.73958,8.34504 -14.46223,8.34504 -8.34505,0 -12.61197,-3.85156 -2.37891,-2.15234 -3.77604,-5.58854 -1.39714,-3.47395 -1.39714,-6.94791 0,-8.49609 5.13542,-13.59374 5.13541,-5.09766 12.12109,-5.09766 7.8164,0 11.2526,4.04037 3.43619,4.0026 3.43619,9.70442 0,2.79427 -2.26562,2.79427 h -19.78645 v 1.24609 q 0,6.57031 2.86979,9.02474 2.86979,2.41666 8.04296,2.41666 2.30339,0 5.17318,-1.28385 2.86979,-1.28385 5.09765,-3.58724 z"
         id="path4885"
         style="stroke:#3785b0;stroke-width:3.66161;stroke-dasharray:none;stroke-opacity:1" />
      <path
         d="m 388.75165,590.72196 q 0,8.49609 0.83073,13.93359 l -0.15104,0.22656 q -3.39844,-0.22656 -6.04167,-0.22656 0,0 -5.17317,0.22656 l -0.15104,-0.22656 q 0.45312,-4.11589 0.45312,-13.93359 v -6.87239 q 0,-7.17448 -4.0026,-7.17448 -4.26693,0 -8.98698,6.15495 v 7.89192 q 0,8.64713 0.45313,13.93359 l -0.22656,0.22656 q -2.15235,-0.22656 -4.79558,-0.22656 0,0 -6.34374,0.22656 l -0.15104,-0.22656 q 0.86849,-5.32422 0.86849,-13.93359 v -4.22917 q 0,-10.27082 -0.86849,-15.02863 l 0.15104,-0.22657 q 6.64583,0.30209 10.08202,-0.22656 0.52865,0 0.67969,0.79297 0.15104,0.75521 0.15104,5.6263 l 0.30209,0.22656 q 2.64322,-3.32291 5.89062,-5.13541 3.24739,-1.8125 6.26823,-1.8125 5.32421,0 8.04296,2.75651 2.71875,2.71875 2.71875,8.68489 z"
         id="path4887"
         style="stroke:#3785b0;stroke-width:3.66161;stroke-dasharray:none;stroke-opacity:1" />
      <path
         d="m 424.3597,594.38472 v -13.17838 q -0.60417,-3.02083 -2.64323,-4.83333 -2.0013,-1.8125 -4.72005,-1.8125 -7.09895,0 -7.09895,12.98958 0,13.36718 6.94791,13.40494 4.94661,0 7.51432,-6.57031 z m 0,6.07942 q -2.86979,4.94661 -11.0638,4.94661 -6.41926,0 -10.42187,-4.60676 -3.96484,-4.64453 -3.96484,-11.85677 0,-9.8177 6.64583,-14.65103 2.71875,-2.00131 5.21094,-2.79427 2.52994,-0.79297 6.30598,-0.79297 1.77474,0 3.96485,1.01953 2.22786,0.98177 3.32291,2.45442 v -6.1927 q 0,-9.36458 -0.94401,-14.53775 l 0.15104,-0.22657 q 2.15235,-0.15104 5.77734,-1.01953 3.66276,-0.90625 5.28646,-1.54817 0.86849,0 0.86849,0.79296 -0.94401,7.4388 -0.94401,14.53776 v 23.82681 q 0,6.94791 1.47265,14.83984 l -0.15104,0.22656 q -1.54817,-0.22656 -5.36197,-0.22656 -3.13412,0 -4.90886,0.22656 -0.67968,0 -0.71744,-0.22656 l -0.37761,-4.19141 z"
         id="path4889"
         style="stroke:#3785b0;stroke-width:3.66161;stroke-dasharray:none;stroke-opacity:1" />
      <path
         d="m 453.47298,583.39644 h 11.78124 q 0.15105,-0.15104 0.15105,-1.6237 0,-4.1914 -1.66146,-5.89062 -1.66146,-1.69922 -3.70052,-1.69922 -2.71875,0 -4.15364,2.22787 -2.34115,3.43619 -2.41667,6.98567 z m 20.8815,11.29036 q 1.17057,0 1.17057,2.37891 -5.73958,8.34504 -14.46223,8.34504 -8.34505,0 -12.61197,-3.85156 -2.37891,-2.15234 -3.77604,-5.58854 -1.39714,-3.47395 -1.39714,-6.94791 0,-8.49609 5.13542,-13.59374 5.13541,-5.09766 12.12108,-5.09766 7.81641,0 11.2526,4.04037 3.4362,4.0026 3.4362,9.70442 0,2.79427 -2.26562,2.79427 H 453.1709 v 1.24609 q 0,6.57031 2.86979,9.02474 2.86979,2.41666 8.04296,2.41666 2.30339,0 5.17318,-1.28385 2.86979,-1.28385 5.09765,-3.58724 z"
         id="path4891"
         style="stroke:#3785b0;stroke-width:3.66161;stroke-dasharray:none;stroke-opacity:1" />
      <path
         d="m 493.57452,604.88211 q -7.89193,-20.65494 -13.85807,-33.64452 1.24609,0.22657 6.72135,0.22657 4.72005,0 5.73958,-0.22657 5.02213,15.93489 8.79817,24.92187 h 0.22657 q 2.49218,-5.39974 9.4401,-24.92187 0.67968,0.22657 3.32291,0.22657 3.70052,0 4.41797,-0.22657 -9.81771,21.03255 -14.99088,33.64452 -0.67969,-0.22656 -4.04036,-0.22656 -5.02214,0 -5.77734,0.22656 z"
         id="path4893"
         style="stroke:#3785b0;stroke-width:3.66161;stroke-dasharray:none;stroke-opacity:1" />
      <path
         d="m 518.53413,600.95503 v -0.41537 q 1.47266,-3.70052 5.32422,-5.24869 h 0.30208 q 3.92708,1.39713 5.32422,5.24869 v 0.41537 q -0.75521,2.3789 -2.0013,3.54948 -1.2461,1.17057 -3.32292,1.69921 h -0.30208 q -2.37891,-0.52864 -3.54948,-1.62369 -1.17057,-1.13282 -1.77474,-3.625 z"
         id="path4895"
         style="stroke:#3785b0;stroke-width:3.66161;stroke-dasharray:none;stroke-opacity:1" />
      <path
         d="m 572.94689,590.72196 q 0,8.49609 0.83072,13.93359 l -0.15104,0.22656 q -3.39843,-0.22656 -6.04166,-0.22656 0,0 -5.17318,0.22656 l -0.15104,-0.22656 q 0.45313,-4.11589 0.45313,-13.93359 v -6.87239 q 0,-7.17448 -4.00261,-7.17448 -4.26692,0 -8.98697,6.15495 v 7.89192 q 0,8.64713 0.45312,13.93359 l -0.22656,0.22656 q -2.15234,-0.22656 -4.79557,-0.22656 0,0 -6.34375,0.22656 l -0.15104,-0.22656 q 0.86849,-5.32422 0.86849,-13.93359 v -4.22917 q 0,-10.27082 -0.86849,-15.02863 l 0.15104,-0.22657 q 6.64583,0.30209 10.08203,-0.22656 0.52865,0 0.67969,0.79297 0.15104,0.75521 0.15104,5.6263 l 0.30208,0.22656 q 2.64323,-3.32291 5.89062,-5.13541 3.2474,-1.8125 6.26823,-1.8125 5.32422,0 8.04297,2.75651 2.71875,2.71875 2.71875,8.68489 z"
         id="path4897"
         style="stroke:#3785b0;stroke-width:3.66161;stroke-dasharray:none;stroke-opacity:1" />
      <path
         d="m 592.99764,583.39644 h 11.78124 q 0.15104,-0.15104 0.15104,-1.6237 0,-4.1914 -1.66145,-5.89062 -1.66146,-1.69922 -3.70052,-1.69922 -2.71875,0 -4.15365,2.22787 -2.34114,3.43619 -2.41666,6.98567 z m 20.8815,11.29036 q 1.17057,0 1.17057,2.37891 -5.73958,8.34504 -14.46223,8.34504 -8.34505,0 -12.61198,-3.85156 -2.3789,-2.15234 -3.77604,-5.58854 -1.39713,-3.47395 -1.39713,-6.94791 0,-8.49609 5.13541,-13.59374 5.13542,-5.09766 12.12109,-5.09766 7.81641,0 11.2526,4.04037 3.4362,4.0026 3.4362,9.70442 0,2.79427 -2.26563,2.79427 h -19.78645 v 1.24609 q 0,6.57031 2.86979,9.02474 2.8698,2.41666 8.04297,2.41666 2.30338,0 5.17317,-1.28385 2.86979,-1.28385 5.09766,-3.58724 z"
         id="path4899"
         style="stroke:#3785b0;stroke-width:3.66161;stroke-dasharray:none;stroke-opacity:1" />
      <path
         d="m 620.22289,575.35348 q -1.01953,0 -0.98177,-1.2461 0,-0.86849 0.52865,-1.73697 0.52864,-0.90625 1.09505,-0.90625 h 4.45573 q 0,-4.56901 -0.52865,-7.77865 l 0.15104,-0.26432 q 3.09636,-0.67969 10.04427,-3.47396 0.67969,0 0.71745,0.79297 -0.37761,5.66406 -0.37761,10.72396 h 8.26953 q 0.60417,0 0.60417,0.49088 v 2.37891 q 0,1.01953 -1.85026,1.01953 h -7.02344 l -0.1888,8.26952 q -0.0755,4.22917 -0.0755,10.91276 0,0.60417 0.0378,1.17057 0.0378,0.52865 0.11328,1.09505 0.0755,0.52865 0.1888,1.01953 0.15105,0.45313 0.30209,0.86849 0.1888,0.41537 0.41536,0.75521 0.22656,0.30208 0.49089,0.56641 0.26432,0.22656 0.60416,0.33984 0.33985,0.11328 0.71745,0.11328 2.64323,0 4.49349,-0.90625 1.32161,0.83073 1.32161,3.17188 -4.49349,2.71875 -11.36588,2.68098 -3.47395,0 -5.51302,-2.26562 -2.0013,-2.30338 -2.0013,-5.28646 0,-4.11588 0.22656,-13.40494 l 0.22657,-9.10025 z"
         id="path4901"
         style="stroke:#3785b0;stroke-width:3.66161;stroke-dasharray:none;stroke-opacity:1" />
    </g>
  </g>
</svg>
